<svg width="40" height="41" viewBox="0 0 40 41" fill="none" xmlns="http://www.w3.org/2000/svg">
<path d="M17.0798 26.0601L12.8198 21.8001L10.6998 23.9201L17.0598 30.2801L29.0598 18.2801L26.9398 16.1601L17.0798 26.0601ZM30.6738 0.620117L39.8878 8.31012L37.3278 11.3801L28.1078 3.69412L30.6738 0.620117ZM9.32577 0.620117L11.8898 3.69212L2.67377 11.3801L0.11377 8.30812L9.32577 0.620117ZM19.9998 5.00012C10.0598 5.00012 1.99977 13.0601 1.99977 23.0001C1.99977 32.9401 10.0598 41.0001 19.9998 41.0001C29.9398 41.0001 37.9998 32.9401 37.9998 23.0001C37.9998 13.0601 29.9398 5.00012 19.9998 5.00012ZM19.9998 37.0001C12.2798 37.0001 5.99977 30.7201 5.99977 23.0001C5.99977 15.2801 12.2798 9.00012 19.9998 9.00012C27.7198 9.00012 33.9998 15.2801 33.9998 23.0001C33.9998 30.7201 27.7198 37.0001 19.9998 37.0001Z" fill="black"/>
</svg>
