<svg width="19" height="22" viewBox="0 0 19 22" fill="none" xmlns="http://www.w3.org/2000/svg">
<path d="M2 11.0003V15.0003C2 15.8303 2.67 16.5003 3.5 16.5003C4.33 16.5003 5 15.8303 5 15.0003V11.0003C5 10.1703 4.33 9.50031 3.5 9.50031C2.67 9.50031 2 10.1703 2 11.0003ZM8 11.0003V15.0003C8 15.8303 8.67 16.5003 9.5 16.5003C10.33 16.5003 11 15.8303 11 15.0003V11.0003C11 10.1703 10.33 9.50031 9.5 9.50031C8.67 9.50031 8 10.1703 8 11.0003ZM1.5 21.5003H17.5C18.33 21.5003 19 20.8303 19 20.0003C19 19.1703 18.33 18.5003 17.5 18.5003H1.5C0.67 18.5003 0 19.1703 0 20.0003C0 20.8303 0.67 21.5003 1.5 21.5003ZM14 11.0003V15.0003C14 15.8303 14.67 16.5003 15.5 16.5003C16.33 16.5003 17 15.8303 17 15.0003V11.0003C17 10.1703 16.33 9.50031 15.5 9.50031C14.67 9.50031 14 10.1703 14 11.0003ZM8.57 0.990313L0.67 5.15031C0.26 5.36031 0 5.79031 0 6.25031C0 6.94031 0.56 7.50031 1.25 7.50031H17.76C18.44 7.50031 19 6.94031 19 6.25031C19 5.79031 18.74 5.36031 18.33 5.15031L10.43 0.990313C9.85 0.680312 9.15 0.680312 8.57 0.990313Z" fill="black"/>
</svg>
