<svg width="19" height="19" viewBox="0 0 19 19" fill="none" xmlns="http://www.w3.org/2000/svg">
<path d="M4.83333 16.6667H8.16667C8.16667 17.5833 7.41667 18.3333 6.5 18.3333C5.58333 18.3333 4.83333 17.5833 4.83333 16.6667ZM3.16667 15.8333H9.83333V14.1667H3.16667V15.8333ZM12.75 7.91667C12.75 11.1 10.5333 12.8 9.60833 13.3333H3.39167C2.46667 12.8 0.25 11.1 0.25 7.91667C0.25 4.46667 3.05 1.66667 6.5 1.66667C9.95 1.66667 12.75 4.46667 12.75 7.91667ZM11.0833 7.91667C11.0833 5.39167 9.025 3.33333 6.5 3.33333C3.975 3.33333 1.91667 5.39167 1.91667 7.91667C1.91667 9.975 3.15833 11.1583 3.875 11.6667H9.125C9.84167 11.1583 11.0833 9.975 11.0833 7.91667ZM16.8083 6.14167L15.6667 6.66667L16.8083 7.19167L17.3333 8.33333L17.8583 7.19167L19 6.66667L17.8583 6.14167L17.3333 5L16.8083 6.14167ZM14.8333 5L15.6167 3.28333L17.3333 2.5L15.6167 1.71667L14.8333 0L14.05 1.71667L12.3333 2.5L14.05 3.28333L14.8333 5Z" fill="currentColor"/>
</svg>
