<svg width="20" height="20" viewBox="0 0 20 20" fill="none" xmlns="http://www.w3.org/2000/svg">
<path d="M15.3333 2H4.66667C3.95942 2 3.28115 2.25286 2.78105 2.70294C2.28095 3.15303 2 3.76348 2 4.4V13.2C2 13.8365 2.28095 14.447 2.78105 14.897C3.28115 15.3471 3.95942 15.6 4.66667 15.6H6.96889L9.36889 17.768C9.45195 17.8421 9.55045 17.9008 9.65875 17.9406C9.76705 17.9804 9.88302 18.0006 10 18C10.2119 18 10.4168 17.9319 10.5778 17.808L13.44 15.6H15.3333C16.0406 15.6 16.7189 15.3471 17.219 14.897C17.719 14.447 18 13.8365 18 13.2V4.4C18 3.76348 17.719 3.15303 17.219 2.70294C16.7189 2.25286 16.0406 2 15.3333 2ZM16.2222 13.2C16.2222 13.4122 16.1286 13.6156 15.9619 13.7657C15.7952 13.9157 15.5691 14 15.3333 14H13.1111C12.8992 14 12.6943 14.0681 12.5333 14.192L10.0444 16.112L7.96444 14.232C7.88139 14.1578 7.78288 14.0992 7.67458 14.0594C7.56628 14.0196 7.45032 13.9994 7.33333 14H4.66667C4.43092 14 4.20483 13.9157 4.03813 13.7657C3.87143 13.6156 3.77778 13.4122 3.77778 13.2V4.4C3.77778 4.18782 3.87143 3.98434 4.03813 3.83431C4.20483 3.68428 4.43092 3.6 4.66667 3.6H15.3333C15.5691 3.6 15.7952 3.68428 15.9619 3.83431C16.1286 3.98434 16.2222 4.18782 16.2222 4.4V13.2Z" fill="currentColor"/>
<path d="M7 8H13" stroke="currentColor" stroke-linecap="round"/>
<path d="M7 11H13" stroke="currentColor" stroke-linecap="round"/>
</svg>
