<svg width="16" height="16" viewBox="0 0 16 16" fill="none" xmlns="http://www.w3.org/2000/svg">
<path d="M14 5.16699H2C1.72667 5.16699 1.5 4.94033 1.5 4.66699C1.5 4.39366 1.72667 4.16699 2 4.16699H14C14.2733 4.16699 14.5 4.39366 14.5 4.66699C14.5 4.94033 14.2733 5.16699 14 5.16699Z" fill="#00092E"/>
<path d="M12 8.5H4C3.72667 8.5 3.5 8.27333 3.5 8C3.5 7.72667 3.72667 7.5 4 7.5H12C12.2733 7.5 12.5 7.72667 12.5 8C12.5 8.27333 12.2733 8.5 12 8.5Z" fill="#00092E"/>
<path d="M9.33335 11.833H6.66669C6.39335 11.833 6.16669 11.6063 6.16669 11.333C6.16669 11.0597 6.39335 10.833 6.66669 10.833H9.33335C9.60669 10.833 9.83335 11.0597 9.83335 11.333C9.83335 11.6063 9.60669 11.833 9.33335 11.833Z" fill="#00092E"/>
</svg>
