<svg width="14" height="15" viewBox="0 0 14 15" fill="none" 
  xmlns="http://www.w3.org/2000/svg">
<path d="M13.0749 1.20973C12.6989 0.819727 12.0914 0.819727 11.7153 1.20973L6.99994 
  6.08973L2.28458 1.19973C1.90851 0.809727 1.30101 0.809727 0.924937 1.19973C0.548865 
  1.58973 0.548865 2.21973 0.924937 2.60973L5.64029 7.49973L0.924937 12.3897C0.548865 
  12.7797 0.548865 13.4097 0.924937 13.7997C1.30101 14.1897 1.90851 14.1897 2.28458 
  13.7997L6.99994 8.90973L11.7153 13.7997C12.0914 14.1897 12.6989 14.1897 13.0749 
  13.7997C13.451 13.4097 13.451 12.7797 13.0749 12.3897L8.35958 7.49973L13.0749 
  2.60973C13.4414 2.22973 13.4414 1.58973 13.0749 1.20973Z" fill="#EA1105"/>
</svg>
