<svg width="18" height="17" viewBox="0 0 18 17" fill="none" xmlns="http://www.w3.org/2000/svg">
<path d="M12.626 1.35424C13.7664 1.35424 14.8385 1.79845 15.6457 2.60571C16.453 3.4087 16.8972 4.48078 16.8972 5.6212C16.8972 6.76161 16.453 7.83796 15.6457 8.64522L8.99969 15.2912L2.35367 8.64949C1.54641 7.84223 1.1022 6.76588 1.1022 5.62547C1.1022 4.48505 1.54641 3.41297 2.35367 2.60998C3.16093 1.80272 4.23301 1.35852 5.37342 1.35852C6.51384 1.35852 7.58592 1.80272 8.39318 2.60998L8.99969 3.21223L9.60193 2.60998C10.4092 1.79845 11.4855 1.35424 12.626 1.35424ZM12.626 0.5C11.3147 0.5 10.0034 0.999733 8.99969 2.00347C8.00023 1.004 6.68469 0.5 5.37342 0.5C4.06216 0.5 2.75089 0.999733 1.75143 2.00347C-0.251778 4.0024 -0.251778 7.24853 1.75143 9.25173L8.99969 16.5L16.248 9.25173C18.2512 7.24853 18.2512 4.0024 16.248 2.00347C15.2442 0.999733 13.9372 0.5 12.626 0.5Z" fill="black"/>
</svg>
